# Blender 3.1.2
# www.blender.org
mtllib hexa_column.mtl
o hexa_column_500_2000
v 0.250000 -0.144338 0.000000
v -0.000000 -0.288675 0.000000
v 0.250000 0.144338 0.000000
v -0.250000 -0.144338 0.000000
v 0.000000 0.288675 0.000000
v -0.250000 0.144338 0.000000
v 0.000000 0.288675 2.000000
v -0.250000 0.144338 2.000000
v 0.250000 0.144338 2.000000
v -0.250000 -0.144338 2.000000
v 0.250000 -0.144338 2.000000
v -0.000000 -0.288675 2.000000
vn -0.0000 -0.0000 -1.0000
vn -0.0000 -0.0000 1.0000
vn 0.5000 0.8660 -0.0000
vn 1.0000 -0.0000 -0.0000
vn -0.5000 0.8660 -0.0000
vn -1.0000 -0.0000 -0.0000
vn -0.5000 -0.8660 -0.0000
vn 0.5000 -0.8660 -0.0000
s 0
g hexa_column_500_2000_Material.001
usemtl Material.001
f 1//1 2//1 3//1
f 2//1 4//1 3//1
f 3//1 4//1 5//1
f 4//1 6//1 5//1
f 7//2 8//2 9//2
f 8//2 10//2 9//2
f 9//2 10//2 11//2
f 10//2 12//2 11//2
f 7//3 9//3 5//3
f 9//3 3//3 5//3
f 9//4 11//4 3//4
f 11//4 1//4 3//4
f 8//5 7//5 6//5
f 7//5 5//5 6//5
f 10//6 8//6 4//6
f 8//6 6//6 4//6
f 12//7 10//7 2//7
f 10//7 4//7 2//7
f 11//8 12//8 1//8
f 12//8 2//8 1//8
