# Blender 3.1.2
# www.blender.org
mtllib slope.mtl
o slope
v 1.782593 0.000000 0.000000
v 0.520386 0.000000 -0.810453
v 0.000000 0.000000 -0.000000
v 0.000000 -1.000000 -0.000000
v 0.520386 -1.000000 -0.810453
v 1.782593 -1.000000 0.000000
vn -0.0000 1.0000 -0.0000
vn -0.0000 -1.0000 -0.0000
vn 0.5403 -0.0000 -0.8415
vn -0.0000 -0.0000 1.0000
vn -0.8415 -0.0000 -0.5403
vt 0.390625 0.341797
vt 0.386719 0.615234
vt 0.882812 0.373047
vt 0.390625 0.341797
vt 0.386719 0.615234
vt 0.167969 0.123047
vt 0.390625 0.341797
vt 0.882812 0.373047
vt 0.167969 0.123047
vt 0.000000 0.000000
vt 0.882812 0.373047
vt 0.167969 0.123047
vt 1.000000 0.000000
vt 0.386719 0.615234
vt 0.167969 0.123047
vt 1.000000 1.000000
vt 0.386719 0.615234
vt 0.882812 0.373047
s 0
g slope_Material.003
usemtl Material.003
f 1/1/1 2/4/1 3/7/1
f 4/10/2 5/13/2 6/16/2
f 6/17/3 5/14/3 1/2/3
f 5/14/3 2/5/3 1/2/3
f 4/11/4 6/18/4 3/8/4
f 6/18/4 1/3/4 3/8/4
f 5/15/5 4/12/5 2/6/5
f 4/12/5 3/9/5 2/6/5
